<?xml version="1.0" encoding="UTF-8" standalone="no"?>
<!-- Created with Inkscape (http://www.inkscape.org/) -->

<svg
   xmlns:dc="http://purl.org/dc/elements/1.1/"
   xmlns:cc="http://creativecommons.org/ns#"
   xmlns:rdf="http://www.w3.org/1999/02/22-rdf-syntax-ns#"
   xmlns:svg="http://www.w3.org/2000/svg"
   xmlns="http://www.w3.org/2000/svg"
   xmlns:sodipodi="http://sodipodi.sourceforge.net/DTD/sodipodi-0.dtd"
   xmlns:inkscape="http://www.inkscape.org/namespaces/inkscape"
   width="171.09172mm"
   height="167.88475mm"
   viewBox="0 0 606.23051 594.86722"
   id="svg4316"
   version="1.1"
   inkscape:version="0.91 r"
   sodipodi:docname="just_peace_negativ.svg"
   inkscape:export-filename="/home/jumplink/Dokumente/Arbeit/Material/Logo/just_peace_negativ.svg.png"
   inkscape:export-xdpi="90"
   inkscape:export-ydpi="90">
  <defs
     id="defs4318" />
  <sodipodi:namedview
     id="base"
     pagecolor="#272822"
     bordercolor="#666666"
     borderopacity="1.0"
     inkscape:pageopacity="1"
     inkscape:pageshadow="2"
     inkscape:zoom="0.35"
     inkscape:cx="264.72111"
     inkscape:cy="449.77542"
     inkscape:document-units="px"
     inkscape:current-layer="layer1"
     showgrid="false"
     fit-margin-top="0"
     fit-margin-left="0"
     fit-margin-right="0"
     fit-margin-bottom="0"
     inkscape:window-width="1440"
     inkscape:window-height="863"
     inkscape:window-x="0"
     inkscape:window-y="180"
     inkscape:window-maximized="1" />
  <metadata
     id="metadata4321">
    <rdf:RDF>
      <cc:Work
         rdf:about="">
        <dc:format>image/svg+xml</dc:format>
        <dc:type
           rdf:resource="http://purl.org/dc/dcmitype/StillImage" />
        <dc:title></dc:title>
      </cc:Work>
    </rdf:RDF>
  </metadata>
  <g
     inkscape:label="Ebene 1"
     inkscape:groupmode="layer"
     id="layer1"
     transform="translate(3411.9445,-714.66313)">
    <path
       style="fill:#ffffff;fill-opacity:1;stroke:none;stroke-width:0.86226493;stroke-linecap:round;stroke-linejoin:round;stroke-opacity:1"
       d="m -1697.1426,910.2207 a 303.11465,303.11465 0 0 0 -303.1152,303.1152 303.11465,303.11465 0 0 0 222.0566,291.752 l 0,-69.9805 c -29.3699,-20.62 -47.9912,-56.9304 -49.2363,-112.9707 0,-73.7098 0.2366,-13.2934 0.3652,-37.4453 0.1288,-24.1521 7.3379,-53.3959 40.1114,-48.875 -0.089,-7.512 4.3162,-27.2677 16.3925,-38.0371 12.0765,-10.7693 25.1841,-12.1361 34.2579,-11.0684 -6.0123,-35.5515 -20.397,-125.5999 -25.254,-156.3574 -4.857,-30.75748 58.0512,-39.94456 62.9004,-10.4551 4.8492,29.4895 26.5675,172.7519 32.5196,172.8379 5.9521,0.086 29.3405,-133.2039 34.7168,-165.5019 5.3765,-32.29823 68.0586,-21.3884 64.2949,9.9648 -3.7635,31.3531 -26.4953,163.6827 -30.6777,189.6192 -4.1821,25.9364 13.3167,32.7181 17.0683,37.6738 4.8385,6.3921 19.7198,8.6395 19.2539,61.1016 -0.1452,16.3621 -9.5567,67.461 -48.3008,100.8242 l 0,76.9023 a 303.11465,303.11465 0 0 0 215.7618,-289.9844 303.11465,303.11465 0 0 0 -303.1153,-303.1152 z"
       transform="translate(-1411.6867,-195.55757)"
       id="circle4193"
       inkscape:connector-curvature="0" />
  </g>
</svg>
